<?xml version="1.0" encoding="utf-8"?>
<!-- Generator: Adobe Illustrator 25.0.0, SVG Export Plug-In . SVG Version: 6.00 Build 0)  -->
<svg version="1.1" id="Слой_1" xmlns="http://www.w3.org/2000/svg" xmlns:xlink="http://www.w3.org/1999/xlink" x="0px" y="0px"
	 viewBox="0 0 30 30" style="enable-background:new 0 0 30 30;" xml:space="preserve">
<style type="text/css">
	.st0{clip-path:url(#SVGID_2_);}
	.st1{fill:#012169;}
	.st2{fill:#FFFFFF;}
	.st3{fill:#C8102E;}
</style>
<g>
	<defs>
		<circle id="SVGID_1_" cx="15" cy="15" r="15"/>
	</defs>
	<clipPath id="SVGID_2_">
		<use xlink:href="#SVGID_1_"  style="overflow:visible;"/>
	</clipPath>
	<g id="surface1" class="st0">
		<rect class="st1" width="30" height="30"/>
		<path class="st2" d="M30,0v3.8L18.9,15L30,26v4h-3.9L14.9,19L4,30H0v-4l10.9-11L0,4.3V0h3.6l11.2,11L25.8,0H30z"/>
		<path class="st3" d="M10.8,19l0.6,2l-9,9H0v-0.2L10.8,19z M18,18.3l3.2,0.5l8.8,8.6V30L18,18.3z M30,0L18.8,11.5l-0.2-2.6L27.3,0
			H30z M0,0.1l11.3,11.1l-3.5-0.5L0,2.9V0.1z"/>
		<path class="st2" d="M10.3,0v30h9.4V0H10.3z M0,10.3v9.4h30v-9.4H0z"/>
		<path class="st3" d="M0,12.2v5.6h30v-5.6H0z M12.2,0v30h5.6V0H12.2z"/>
	</g>
</g>
</svg>
