<svg width="18" height="20" viewBox="0 0 18 20" fill="none" xmlns="http://www.w3.org/2000/svg">
<path d="M2.76823 10.1406L4.66667 9.44918C4.72526 9.42578 4.79557 9.41406 4.86584 9.41406H17.0299C17.3581 9.41406 17.6158 9.67184 17.6158 10V18.2422C17.6158 19.2148 16.8307 20 15.858 20H4.13928C3.16659 20 2.38147 19.2148 2.38147 18.2422V10.6914C2.38147 10.4453 2.53385 10.2227 2.76823 10.1406Z" fill="#FC1A40"/>
<path d="M2.38147 10.6914V18.2422C2.38147 19.2148 3.16659 20 4.13928 20H9.99866V9.41406H4.86584C4.79553 9.41406 4.72522 9.42578 4.66667 9.44918L2.76823 10.1406C2.53385 10.2227 2.38147 10.4453 2.38147 10.6914Z" fill="#C60034"/>
<path d="M2.59247 3.81984C2.79165 3.01124 3.38935 2.37847 4.19794 2.12062C4.99481 1.87449 5.85032 2.05031 6.47138 2.61277L7.83079 3.80812L8.10028 2.01519C8.22919 1.19488 8.75653 0.50343 9.54165 0.175344C9.69399 0.116712 9.84634 0.0698366 9.99868 0.0463991C10.6432 -0.0825072 11.3112 0.0581178 11.8503 0.456594C12.5651 0.972219 12.9284 1.83941 12.8112 2.70656C12.6823 3.57374 12.0963 4.31202 11.2643 4.60499L9.99868 5.06202L8.44009 5.63624C8.42837 5.63624 8.42837 5.63624 8.42837 5.63624L5.72134 6.6323C5.45185 6.72609 5.1706 6.773 4.90106 6.773C4.32677 6.773 3.76431 6.56199 3.31899 6.16359C2.66278 5.57765 2.38153 4.67527 2.59247 3.81984Z" fill="#FE9923"/>
<path d="M3.31897 6.16361C3.76428 6.56201 4.32678 6.77303 4.90104 6.77303C5.17053 6.77303 5.45178 6.72611 5.72131 6.63232L8.42834 5.63627C8.42834 5.63627 8.42834 5.63627 8.44006 5.63627L9.99866 5.06205V0.0463867C9.84631 0.0698633 9.69397 0.116699 9.54163 0.175332C8.75651 0.503418 8.22913 1.19486 8.10026 2.01518L7.83077 3.80811L6.47135 2.61275C5.8503 2.05029 4.99479 1.87447 4.19792 2.12061C3.38932 2.37846 2.79167 3.01123 2.59245 3.81982C2.38147 4.67529 2.66272 5.57768 3.31897 6.16361Z" fill="#FE8821"/>
<path d="M0.377581 9.1445L1.17446 11.3476C1.26824 11.582 1.4909 11.7226 1.72528 11.7226C1.79559 11.7226 1.8659 11.7109 1.92445 11.6875L7.98309 9.48439L8.53383 7.66798L9.99867 7.99607L11.2877 8.28904L17.3463 6.08591C17.651 5.96876 17.8033 5.62888 17.6979 5.33591L16.8893 3.13286C16.737 2.68755 16.4088 2.33591 15.9869 2.13673C15.565 1.93755 15.0846 1.91408 14.6393 2.07814L9.99863 3.76564L9.68219 3.88279C9.68219 3.88279 8.4166 6.1797 8.38141 6.1797C8.35793 6.1797 7.85406 5.89845 7.36188 5.62888C6.86981 5.35935 6.37758 5.07814 6.37758 5.07814L1.43231 6.88279C0.986994 7.04685 0.635431 7.37501 0.436253 7.79689C0.236956 8.21872 0.213556 8.69923 0.377581 9.1445Z" fill="#FF3E75"/>
<path d="M0.377563 9.14449L1.17444 11.3476C1.26823 11.582 1.49088 11.7226 1.72526 11.7226C1.79557 11.7226 1.86588 11.7109 1.92444 11.6875L7.98307 9.48438L8.53381 7.66797L9.99866 7.99605V3.76562L9.68221 3.88277C9.68221 3.88277 8.41663 6.17969 8.38143 6.17969C8.35795 6.17969 7.85409 5.89844 7.3619 5.62887C6.86979 5.35934 6.37756 5.07812 6.37756 5.07812L1.43229 6.88277C0.986978 7.04684 0.635415 7.375 0.436235 7.79688C0.236938 8.21871 0.21354 8.69922 0.377563 9.14449Z" fill="#FC1A40"/>
<path d="M11.7565 9.41406V20H8.24084V9.41406H11.7565Z" fill="#FCBF29"/>
<path d="M9.68225 3.88281L9.9987 4.75L11.2877 8.2891L9.9987 8.75789L8.53385 9.28523L7.98311 9.48441L6.37756 5.07816L9.68225 3.88281Z" fill="#FCBF29"/>
<path d="M8.24072 9.41406H9.99854V20H8.24072V9.41406Z" fill="#FE9923"/>
<path d="M6.37756 5.07816L7.98307 9.48441L8.53381 9.2852L9.99866 8.75785V4.75L9.68225 3.88281L6.37756 5.07816Z" fill="#FE9923"/>
</svg>
