<?xml version="1.0" encoding="utf-8"?>
<!-- Generator: Adobe Illustrator 25.0.0, SVG Export Plug-In . SVG Version: 6.00 Build 0)  -->
<svg version="1.1" id="Слой_1" xmlns="http://www.w3.org/2000/svg" xmlns:xlink="http://www.w3.org/1999/xlink" x="0px" y="0px"
	 viewBox="0 0 20.6 26.8" style="enable-background:new 0 0 20.6 26.8;" xml:space="preserve">
<style type="text/css">
	.st0{display:none;}
	.st1{display:inline;}
	.st2{display:inline;clip-path:url(#SVGID_2_);}
	.st3{fill:#103559;}
	.st4{fill:#FFFFFF;}
</style>
<g class="st0">
	<defs>
		<rect id="SVGID_1_" x="-47.2" y="-6.5" width="115" height="40"/>
	</defs>
	<clipPath id="SVGID_2_" class="st1">
		<use xlink:href="#SVGID_1_"  style="overflow:visible;"/>
	</clipPath>
	<g class="st2">
		<path class="st3" d="M-15.6,28.8c0.6,0,1.2,0.2,1.6,0.6c0.4,0.4,0.6,1,0.6,1.6c0,0.6-0.2,1.2-0.6,1.6c-0.4,0.4-1,0.6-1.6,0.6H-17
			v2.3h-1.1v-6.8L-15.6,28.8L-15.6,28.8z M-15.6,32.3c0.7,0,1.1-0.5,1.1-1.2c0-0.7-0.5-1.2-1.1-1.2H-17v2.4L-15.6,32.3L-15.6,32.3z"
			/>
		<path class="st3" d="M-11.7,33.7c0.2,0.7,0.8,1.1,1.6,1.1c0.6,0,1-0.2,1.3-0.6l0.9,0.5c-0.5,0.7-1.3,1-2.2,1c-0.8,0-1.5-0.2-2-0.7
			c-0.5-0.5-0.8-1-0.8-1.7c0-0.7,0.3-1.2,0.8-1.7c0.5-0.5,1.2-0.7,1.9-0.7c0.7,0,1.4,0.2,1.8,0.7c0.5,0.5,0.7,1,0.7,1.7
			c0,0.1,0,0.2,0,0.4L-11.7,33.7L-11.7,33.7z M-8.7,32.9c-0.2-0.7-0.7-1.1-1.5-1.1c-0.8,0-1.4,0.4-1.5,1.1H-8.7z"/>
		<path class="st3" d="M-4.4,31.7h-1.2v2.4c0,0.6,0.4,0.6,1.2,0.6v1c-1.6,0.2-2.3-0.2-2.3-1.5v-2.4h-0.9v-1h0.9v-1.1l1.1-0.3v1.4
			h1.2V31.7L-4.4,31.7z"/>
		<path class="st3" d="M-1.8,32.9c0.7,0.2,1.6,0.4,1.6,1.4c0,0.4-0.2,0.8-0.5,1s-0.8,0.4-1.3,0.4c-0.9,0-1.6-0.4-1.9-1.1l0.9-0.5
			c0.2,0.4,0.5,0.7,1,0.7s0.8-0.2,0.8-0.5c0-0.3-0.4-0.5-0.9-0.6c-0.7-0.2-1.6-0.4-1.6-1.4c0-0.4,0.2-0.7,0.5-1
			c0.3-0.3,0.7-0.4,1.2-0.4c0.8,0,1.4,0.4,1.7,0.9l-0.8,0.5C-1.3,32-1.6,31.8-2,31.8c-0.4,0-0.7,0.2-0.7,0.5
			C-2.7,32.6-2.3,32.7-1.8,32.9L-1.8,32.9z"/>
		<path class="st3" d="M6.1,29.8c-0.8-0.1-1.2,0.2-1.2,0.9v0.1h1.2v1H4.9v3.8H3.8v-3.8H3v-1h0.8v-0.1c0-1.3,0.8-2,2.4-1.9V29.8z"/>
		<path class="st3" d="M7.4,35c-0.5-0.5-0.8-1-0.8-1.7s0.3-1.2,0.8-1.7c0.5-0.5,1.1-0.7,1.9-0.7c0.7,0,1.4,0.2,1.9,0.7
			c0.5,0.5,0.8,1,0.8,1.7s-0.3,1.2-0.8,1.7c-0.5,0.5-1.1,0.7-1.9,0.7S7.9,35.4,7.4,35z M9.3,34.7c0.4,0,0.8-0.1,1.1-0.4
			s0.5-0.6,0.5-1c0-0.4-0.2-0.7-0.5-1c-0.3-0.3-0.7-0.4-1.1-0.4S8.5,32,8.2,32.3c-0.3,0.3-0.5,0.6-0.5,1c0,0.4,0.2,0.7,0.5,1
			C8.5,34.6,8.8,34.7,9.3,34.7z"/>
		<path class="st3" d="M13.5,31.8c0.3-0.6,0.8-0.9,1.6-0.9V32c-0.4,0-0.8,0.1-1.1,0.3c-0.3,0.2-0.5,0.6-0.5,1v2.3h-1.1V31h1.1V31.8z
			"/>
		<path class="st3" d="M23,33.7c0,0.6-0.2,1-0.6,1.4c-0.4,0.4-0.8,0.6-1.4,0.6h-2.8v-6.8h2.6c0.5,0,1,0.2,1.3,0.5
			c0.4,0.4,0.6,0.8,0.6,1.3c0,0.6-0.2,1.1-0.7,1.4C22.7,32.4,23,33,23,33.7L23,33.7z M19.3,29.9v1.8h1.5c0.5,0,0.8-0.4,0.8-0.9
			c0-0.5-0.4-0.9-0.8-0.9L19.3,29.9L19.3,29.9z M21.1,34.6c0.5,0,0.9-0.4,0.9-1c0-0.5-0.4-1-0.9-1h-1.7v1.9L21.1,34.6L21.1,34.6z"/>
		<path class="st3" d="M25.2,33.7c0.2,0.7,0.8,1.1,1.6,1.1c0.6,0,1-0.2,1.3-0.6l0.9,0.5c-0.5,0.7-1.3,1-2.2,1c-0.8,0-1.5-0.2-2-0.7
			c-0.5-0.5-0.8-1-0.8-1.7c0-0.7,0.3-1.2,0.8-1.7c0.5-0.5,1.2-0.7,1.9-0.7c0.7,0,1.4,0.2,1.8,0.7c0.5,0.5,0.7,1,0.7,1.7
			c0,0.1,0,0.2,0,0.4L25.2,33.7L25.2,33.7z M28.2,32.9c-0.2-0.7-0.7-1.1-1.5-1.1c-0.8,0-1.4,0.4-1.5,1.1H28.2L28.2,32.9z"/>
		<path class="st3" d="M31.4,32.9c0.7,0.2,1.6,0.4,1.6,1.4c0,0.4-0.2,0.8-0.5,1s-0.8,0.4-1.3,0.4c-0.9,0-1.6-0.4-1.9-1.1l0.9-0.5
			c0.2,0.4,0.5,0.7,1,0.7c0.5,0,0.8-0.2,0.8-0.5c0-0.3-0.4-0.5-0.9-0.6c-0.7-0.2-1.6-0.4-1.6-1.4c0-0.4,0.2-0.7,0.5-1
			c0.3-0.3,0.7-0.4,1.2-0.4c0.8,0,1.4,0.4,1.7,0.9l-0.8,0.5c-0.2-0.3-0.5-0.5-0.9-0.5c-0.4,0-0.7,0.2-0.7,0.5
			C30.5,32.6,30.9,32.7,31.4,32.9L31.4,32.9z"/>
		<path class="st3" d="M36.7,31.7h-1.2v2.4c0,0.6,0.4,0.6,1.2,0.6v1c-1.6,0.2-2.3-0.2-2.3-1.5v-2.4h-0.9v-1h0.9v-1.1l1.1-0.3v1.4
			h1.2V31.7L36.7,31.7z"/>
		<path class="st3" d="M-23.2-0.6C-23.4-2-23.9-2.2-25-2.2h-4.5c-1,0-1.2,0.2-1.6,1.3l-3.4,11l-3.4-11c-0.4-1.1-0.6-1.3-1.6-1.3H-44
			c-1.1,0-1.6,0.3-1.7,1.6l-2.4,21.7c-0.1,0.8,0,1.1,0.7,1.2l5.2,0.7c0.8,0.1,1-0.1,1.1-0.6l1.1-10.1l2.4,9.5
			c0.2,0.8,0.5,1.1,1.3,1.1h3.8c0.8,0,1.1-0.3,1.3-1.1l2.4-9.5l1.2,10.1c0.1,0.6,0.3,0.7,1.1,0.6l5.2-0.7c0.7-0.1,0.8-0.4,0.7-1.2
			L-23.2-0.6z"/>
		<path class="st3" d="M-10.8,3.6c-5.8,0-9,4-9,9.5s3.2,9.5,9,9.5s9-4,9-9.5S-4.9,3.6-10.8,3.6z M-10.8,16.3c-1.4,0-2.1-1.3-2.1-3.3
			s0.7-3.3,2.1-3.3c1.4,0,2.1,1.3,2.1,3.3S-9.4,16.3-10.8,16.3z"/>
		<path class="st3" d="M11.2,3.6C10,3.6,1.1,3.8,0.6,4.6C0.3,4.9,0.3,5.3,0.3,5.9l0.3,14.8c0,1.4,0.3,1.8,1.5,1.8h4.2
			c1.2,0,1.5-0.4,1.5-1.8V10.5c0.5-0.2,0.7-0.2,1.3-0.3c0.8,0,1.2,0.2,1.4,0.8c0.2,0.7,0.2,1.7,0.2,3.1l0,6.6c0,1.4,0.4,1.8,1.6,1.8
			h4.3c1.2,0,1.5-0.4,1.5-1.8l0.3-9c0-2.2-0.4-4.2-1.6-5.7C15.5,4.4,13.7,3.6,11.2,3.6L11.2,3.6z"/>
		<path class="st3" d="M27.2,5.7h-4.3c-1.2,0-1.5,0.4-1.5,1.8v13.3c0,1.4,0.3,1.8,1.5,1.8h4.3c1.2,0,1.5-0.4,1.5-1.8L28.7,7.4
			C28.7,6.1,28.4,5.7,27.2,5.7z"/>
		<path class="st3" d="M25.4-3.3c-2.5,0-4,1.6-4,3.7s1.4,3.7,4,3.7c2.5,0,4-1.6,4-3.7S27.9-3.3,25.4-3.3z"/>
		<path class="st3" d="M43.7,4.1h-2.6v-4.6c0-1.4-0.3-1.8-1.6-1.8h-4.1c-1.2,0-1.6,0.4-1.6,1.8v4.6h-2.1c-1.1,0-1.4,0.2-1.4,1.3v3.7
			c0,1.1,0.3,1.3,1.4,1.3h2.1v6.4c0,4.3,2.3,6.3,6.7,6.3c1.3,0,2.6-0.1,3.8-0.3c0.5-0.1,0.7-0.2,0.7-0.7l-0.2-5.2
			c0-0.4-0.2-0.6-0.7-0.5c-0.4,0.1-0.8,0.2-1.3,0.2c-1,0-1.7-0.3-1.7-1.8v-4.3h2.6c1.1,0,1.4-0.2,1.4-1.3V5.4
			C45.2,4.3,44.9,4.1,43.7,4.1L43.7,4.1z"/>
		<path class="st3" d="M55.2,3.6c-5.8,0-9,4-9,9.5s3.2,9.5,9,9.5c5.8,0,9-4,9-9.5S61,3.6,55.2,3.6z M55.2,16.3
			C53.8,16.3,53,15,53,13s0.7-3.3,2.1-3.3c1.4,0,2.1,1.3,2.1,3.3S56.6,16.3,55.2,16.3z"/>
		<path class="st3" d="M65.8,4.3c-0.6-0.4-1.6-0.2-2.2,0.6c-0.6,0.8-0.6,1.7,0,2.2c0.6,0.4,1.6,0.2,2.2-0.6
			C66.4,5.7,66.4,4.7,65.8,4.3z"/>
		<path class="st3" d="M51.5,3c0.7-0.1,1.2-1,1-2c-0.1-1-0.8-1.7-1.5-1.6c-0.7,0.1-1.2,1-1,2C50.1,2.4,50.8,3.1,51.5,3z"/>
		<path class="st3" d="M60.8,4c1,0.5,2.5-0.4,3.3-2.1c0.9-1.7,0.7-3.4-0.3-3.9c-1-0.5-2.5,0.4-3.3,2.1C59.7,1.7,59.8,3.5,60.8,4z"/>
		<path class="st3" d="M55.6,2.5c1,0.1,2-1.2,2.2-2.9c0.2-1.7-0.5-3.3-1.5-3.4c-1-0.1-2,1.2-2.2,2.9C54,0.9,54.6,2.4,55.6,2.5z"/>
	</g>
</g>
<path class="st3" d="M9.2,7.6c-5.8,0-9,4-9,9.5s3.2,9.5,9,9.5c5.8,0,9-4,9-9.5S15,7.6,9.2,7.6z"/>
<path class="st3" d="M19.9,8.4c-0.6-0.4-1.6-0.2-2.2,0.6c-0.6,0.8-0.6,1.7,0,2.2c0.6,0.4,1.6,0.2,2.2-0.6
	C20.4,9.8,20.5,8.8,19.9,8.4z"/>
<path class="st3" d="M5.5,7.1c0.7-0.1,1.2-1,1-2C6.4,4,5.7,3.3,5,3.4c-0.7,0.1-1.2,1-1,2C4.1,6.5,4.8,7.2,5.5,7.1z"/>
<path class="st3" d="M14.8,8c1,0.5,2.5-0.4,3.3-2.1C19,4.2,18.9,2.5,17.9,2c-1-0.5-2.5,0.4-3.3,2.1C13.7,5.7,13.8,7.5,14.8,8z"/>
<path class="st3" d="M9.7,6.6c1,0.1,2-1.2,2.2-2.9c0.2-1.7-0.5-3.3-1.5-3.4c-1-0.1-2,1.2-2.2,2.9C8,4.9,8.7,6.4,9.7,6.6z"/>
<path class="st4" d="M14.2,12.2c-0.1-0.6-0.3-0.7-0.8-0.7h-2c-0.4,0-0.5,0.1-0.7,0.6l-1.5,4.9l-1.5-4.9c-0.2-0.5-0.3-0.6-0.7-0.6H5
	c-0.5,0-0.7,0.1-0.8,0.7l-1.1,9.6c0,0.3,0,0.5,0.3,0.5l2.3,0.3c0.3,0,0.4,0,0.5-0.3l0.5-4.5l1.1,4.2c0.1,0.3,0.2,0.5,0.6,0.5h1.7
	c0.3,0,0.5-0.1,0.6-0.5l1.1-4.2l0.5,4.5c0,0.3,0.1,0.3,0.5,0.3l2.3-0.3c0.3,0,0.3-0.2,0.3-0.5L14.2,12.2z"/>
</svg>
