<?xml version="1.0" standalone="no"?>
<!DOCTYPE svg PUBLIC "-//W3C//DTD SVG 20010904//EN"
 "http://www.w3.org/TR/2001/REC-SVG-20010904/DTD/svg10.dtd">
<svg version="1.0" xmlns="http://www.w3.org/2000/svg"
 width="864.000000pt" height="864.000000pt" viewBox="0 0 864.000000 864.000000"
 preserveAspectRatio="xMidYMid meet">
<metadata>
Created by potrace 1.14, written by Peter Selinger 2001-2017
</metadata>
<g transform="translate(0.000000,864.000000) scale(0.100000,-0.100000)"
fill="#000000" stroke="none">
<path d="M4230 8533 c-198 -50 -387 -260 -497 -552 -29 -77 -26 -68 -58 -200
-33 -140 -40 -211 -38 -376 1 -131 7 -203 19 -250 3 -11 7 -33 10 -50 28 -151
128 -357 217 -447 166 -166 334 -190 511 -70 57 38 176 148 176 163 0 4 6 14
14 22 22 21 91 138 119 198 55 124 99 259 112 354 2 11 4 20 5 20 2 0 4 9 5
20 15 122 18 164 20 253 5 307 -85 609 -232 775 -55 62 -133 118 -185 132 -5
2 -9 3 -10 5 -20 15 -132 17 -188 3z"/>
<path d="M6490 8033 c-143 -23 -321 -122 -459 -256 -93 -90 -118 -120 -195
-235 -66 -97 -224 -395 -229 -433 -2 -8 -5 -18 -9 -24 -6 -11 -47 -146 -53
-177 -2 -11 -6 -27 -9 -36 -3 -9 -8 -37 -11 -62 -3 -25 -7 -56 -10 -70 -7 -35
-7 -229 -1 -260 3 -14 8 -34 10 -45 18 -88 71 -225 87 -225 5 0 9 -6 9 -12 1
-31 96 -111 172 -146 111 -51 276 -43 418 21 25 11 47 21 50 22 18 5 113 68
164 109 168 137 289 294 409 532 74 146 134 298 152 384 1 3 6 23 13 45 6 22
14 65 17 95 4 30 9 58 11 62 7 11 6 230 -1 258 -4 14 -7 32 -7 40 0 35 -41
152 -71 202 -86 142 -195 208 -352 213 -44 1 -91 0 -105 -2z"/>
<path d="M2580 7536 c-117 -31 -217 -135 -271 -281 -11 -31 -13 -37 -27 -115
-11 -62 -6 -167 13 -280 19 -117 19 -118 28 -126 4 -4 7 -14 7 -23 0 -21 52
-131 82 -173 42 -59 109 -119 171 -151 54 -28 70 -32 141 -32 45 0 90 4 101 9
11 5 26 10 33 12 7 1 30 15 50 30 100 76 167 191 190 329 13 76 6 240 -14 339
-2 12 -6 33 -9 47 -10 55 -71 201 -87 207 -4 2 -8 9 -8 16 0 7 -28 41 -62 76
-101 103 -227 146 -338 116z"/>
<path d="M3738 6185 c-2 -1 -46 -6 -98 -10 -139 -11 -157 -13 -247 -29 -45 -8
-101 -18 -125 -21 -23 -4 -45 -8 -49 -10 -3 -2 -21 -7 -40 -10 -49 -9 -232
-62 -314 -91 -38 -14 -74 -27 -80 -28 -5 -2 -32 -13 -58 -24 -27 -12 -51 -22
-53 -22 -7 0 -219 -105 -224 -111 -3 -4 -23 -16 -45 -28 -65 -35 -170 -103
-173 -112 -2 -5 -8 -9 -13 -9 -6 0 -15 -4 -22 -10 -273 -219 -452 -403 -587
-605 -19 -27 -38 -53 -43 -56 -5 -3 -8 -9 -8 -13 0 -3 -16 -32 -36 -63 -21
-32 -38 -64 -39 -72 -2 -8 -7 -17 -12 -20 -17 -12 -136 -267 -183 -394 -50
-135 -121 -373 -134 -452 -2 -11 -8 -40 -14 -65 -9 -39 -14 -73 -36 -210 -2
-14 -7 -50 -10 -80 -3 -30 -8 -66 -10 -80 -10 -61 -17 -250 -18 -425 0 -286
15 -476 58 -720 17 -96 22 -122 30 -155 3 -14 8 -36 11 -50 9 -44 66 -244 82
-290 9 -25 17 -47 17 -50 0 -3 11 -32 24 -65 69 -176 124 -291 221 -460 36
-64 122 -190 131 -193 5 -2 9 -8 9 -13 0 -21 138 -185 260 -308 66 -66 125
-117 265 -229 23 -19 194 -130 237 -155 53 -31 263 -137 271 -137 2 0 22 -8
43 -17 22 -9 41 -17 44 -18 3 -1 12 -4 20 -8 28 -11 165 -59 180 -63 8 -2 31
-8 50 -13 35 -9 128 -33 185 -47 35 -8 39 -9 120 -23 33 -6 74 -13 90 -16 17
-3 50 -8 75 -11 25 -2 63 -7 85 -9 106 -13 236 -18 400 -18 193 1 370 11 475
28 19 3 51 8 70 11 42 6 64 10 110 18 19 4 46 9 60 11 14 3 49 11 78 19 28 8
52 12 52 10 0 -3 8 0 18 5 11 6 30 12 43 15 47 10 65 15 124 36 33 12 67 23
77 25 9 2 30 11 47 19 17 9 31 14 31 10 0 -3 11 1 25 10 13 9 29 16 36 16 25
0 346 169 404 213 6 4 35 24 65 44 137 91 373 303 468 420 101 124 126 157
186 245 36 54 66 99 66 101 0 2 22 42 48 88 57 99 125 239 125 257 0 6 4 12 9
12 4 0 8 8 8 18 0 10 4 22 9 27 17 18 120 338 151 470 29 122 68 337 75 415 2
19 4 35 5 35 1 0 3 18 5 40 1 22 6 83 10 135 16 189 10 572 -11 745 -3 22 -7
60 -9 85 -3 25 -7 56 -9 69 -3 12 -8 42 -10 65 -4 34 -47 244 -60 296 -33 130
-64 235 -81 275 -7 17 -16 41 -20 55 -3 14 -10 34 -15 45 -5 11 -25 59 -44
107 -56 137 -205 417 -228 426 -4 2 -8 8 -8 14 0 9 -111 169 -135 194 -5 6
-26 30 -45 55 -79 98 -262 274 -401 383 -95 76 -326 216 -451 274 -159 74
-418 165 -528 186 -14 2 -54 11 -90 20 -36 8 -83 17 -104 20 -21 4 -48 9 -60
11 -12 3 -40 7 -63 10 -24 3 -62 8 -85 11 -24 3 -64 6 -89 8 -25 1 -50 5 -55
8 -9 5 -510 8 -516 3z"/>
<path d="M7148 5995 c-2 -2 -27 -6 -57 -9 -30 -4 -61 -12 -69 -19 -8 -6 -16
-10 -16 -8 -1 2 -18 -4 -40 -13 -21 -9 -40 -16 -43 -16 -25 0 -173 -131 -223
-198 -70 -94 -132 -244 -134 -324 -1 -21 -5 -38 -9 -38 -5 0 -6 -4 -3 -9 3 -4
8 -35 12 -67 6 -59 25 -118 53 -164 33 -56 114 -127 154 -136 4 -1 9 -3 12 -4
3 -1 8 -3 13 -5 4 -1 19 -5 33 -9 59 -17 183 -10 254 13 3 1 13 4 22 7 39 13
163 78 163 86 0 4 5 8 11 8 24 0 136 131 171 201 43 88 78 185 82 232 2 19 5
38 8 43 8 13 3 142 -7 184 -4 19 -12 41 -17 48 -6 6 -7 12 -4 12 14 0 -55 90
-86 112 -40 28 -95 54 -137 63 -32 7 -138 14 -143 10z"/>
</g>
</svg>
