<svg width="18" height="19" viewBox="0 0 18 19" fill="none" xmlns="http://www.w3.org/2000/svg">
<path d="M17 3.33723V2.59998C17 2.03992 16.9996 1.75993 16.8906 1.54602C16.7948 1.35786 16.6425 1.20487 16.4544 1.10899C16.2405 1 15.9597 1 15.3996 1H2.59961C2.03956 1 1.75981 1 1.5459 1.10899C1.35774 1.20487 1.20487 1.35786 1.10899 1.54602C1 1.75993 1 2.03992 1 2.59998V3.33723C1 3.58182 1 3.70417 1.02763 3.81925C1.05213 3.92129 1.09263 4.0188 1.14746 4.10828C1.20928 4.20916 1.29574 4.29562 1.46859 4.46846L1.46875 4.46863L6.53149 9.53137C6.70444 9.70432 6.79068 9.7908 6.85252 9.89172C6.90735 9.98119 6.94816 10.0787 6.97266 10.1808C7 10.2947 7 10.4156 7 10.6553V10.6627V15.4111C7 16.2683 7 16.697 7.18054 16.9551C7.33819 17.1805 7.5814 17.3311 7.85352 17.3713C8.16514 17.4173 8.54871 17.2256 9.31543 16.8423L10.1154 16.4423C10.4365 16.2817 10.5968 16.2014 10.7141 16.0817C10.8178 15.9758 10.897 15.8481 10.9453 15.708C11 15.5495 11 15.3701 11 15.0111V10.6627C11 10.4181 11 10.2959 11.0276 10.1808C11.0521 10.0787 11.0926 9.98119 11.1475 9.89172C11.2093 9.79085 11.2957 9.7044 11.4685 9.53161L11.4688 9.53137L16.5315 4.46863C16.7044 4.29568 16.7907 4.20919 16.8525 4.10828C16.9073 4.0188 16.9482 3.92129 16.9727 3.81925C17 3.70534 17 3.58431 17 3.34468V3.33723Z" stroke="#002A48" stroke-width="2" stroke-linecap="round" stroke-linejoin="round"/>
</svg>
