<?xml version="1.0" encoding="UTF-8"?>
<svg xmlns="http://www.w3.org/2000/svg" xmlns:xlink="http://www.w3.org/1999/xlink" width="24px" height="24px" viewBox="0 0 24 24" version="1.1">
<g id="surface1">
<path style=" stroke:none;fill-rule:nonzero;fill:rgb(0%,0%,0%);fill-opacity:1;" d="M 8.828125 6.894531 C 9.179688 6.695312 9.613281 6.660156 9.960938 6.914062 L 16.710938 11.039062 C 17.042969 11.246094 17.25 11.605469 17.25 12 C 17.25 12.394531 17.042969 12.753906 16.710938 12.960938 L 9.960938 17.085938 C 9.613281 17.296875 9.179688 17.304688 8.828125 17.105469 C 8.46875 16.90625 8.25 16.53125 8.25 16.125 L 8.25 7.832031 C 8.25 7.46875 8.46875 7.09375 8.828125 6.894531 Z M 24 12 C 24 18.628906 18.628906 24 12 24 C 5.371094 24 0 18.628906 0 12 C 0 5.371094 5.371094 0 12 0 C 18.628906 0 24 5.371094 24 12 Z M 12 2.25 C 6.613281 2.25 2.25 6.613281 2.25 12 C 2.25 17.386719 6.613281 21.75 12 21.75 C 17.386719 21.75 21.75 17.386719 21.75 12 C 21.75 6.613281 17.386719 2.25 12 2.25 Z M 12 2.25 "/>
</g>
</svg>
