<?xml version="1.0" encoding="utf-8"?>
<!-- Generator: Adobe Illustrator 25.0.0, SVG Export Plug-In . SVG Version: 6.00 Build 0)  -->
<svg version="1.1" id="Слой_1" xmlns="http://www.w3.org/2000/svg" xmlns:xlink="http://www.w3.org/1999/xlink" x="0px" y="0px"
	 viewBox="0 0 115 45" style="enable-background:new 0 0 115 45;" xml:space="preserve">
<style type="text/css">
	.st0{fill:#103559;}
</style>
<g>
	<path class="st0" d="M16.7,39c-2.4-1.6-4.5-3.5-5.3-6.6c-0.5-1.7-0.1-3.3,0.7-4.8c0.4-0.7,0.7-1.4,0.9-2.2c0.3-1.2,0-1.9-1.1-2.6
		c-0.6-0.4-1.2-0.7-1.8-1c-0.5-0.3-0.5-0.7-0.7-1.2c-0.9-1.9-3.5-2.2-4.9-3.9c-1.1-1.3-0.7-0.6-3.5-3.9C0.4,12-0.5,8.6,0.3,8.1
		c1-0.6,1.8,0.5,2.8,0.8C3.3,9,3.5,8.8,3.4,9c-0.2,0.4-0.1,0.9-0.2,1.5c-0.1,1.5,2.1,3.5,3.2,4.6c0.9,0.8,0,0,0,0
		c1.3,1.3,3.9,2.4,4.9,3.9c0.2,0.2,0.5,0.2,0.6-0.1c0-0.1,0.1-0.2,0.1-0.3c0.4-1.1,0.7-2.3,1.3-3.2c1-1.7,1.4-3.4,1-5.3
		c0-0.1,0-0.2,0-0.5c0.8,0.8,1.2,1.6,1.2,2.5c0.1,0.9,0,1.9-0.1,2.8c0,0.2-0.1,0.4-0.1,0.6c-0.1,0.4,0.4,0.6,0.6,0.3
		c0.7-1,1.3-2.1,1.4-3.5c0.2-2.1-0.6-3.7-2.5-4.6C11.7,6.3,8.8,6.2,6,7.9C4.9,8.6,4.1,8.4,3.1,9.2C2.7,9.5,1.4,10,0.9,9.9
		C0.5,9.8,0.2,9.3,0.1,9c-0.2-0.5,0.1-0.8,0.5-1.1C2.1,7,3.5,6,5,5.3C8.5,3.5,12.1,3.8,15.8,5c2.3,0.8,4.4,2,6.3,3.7
		c1.2,1,2.4,1.5,4,1.3c4-0.6,8-0.5,11.9,0.3c1.5,0.3,2.6,0,3.6-1.2c2.1-2.5,4.5-4.7,7.1-6.6C50.9,1,53.1,0,55.7,0
		c2.2,0,3.6,1.4,3.6,3.6c0,4.4-1.2,8.5-3.6,12.1c-0.9,1.3-1.4,2.6-1.1,4.1c0.2,1-0.2,1.8-1,2.3c-0.2,0.2-0.5,0.4-0.7,0.5
		c-1.7,1-1.7,2.3-1.2,3.8c0.2,0.6,0.5,1.2,0.7,1.7c1.2,2.6,0.8,4.9-0.9,7.1c-1.5,1.9-3.5,3.2-5.6,4.2c0,0-0.1,0-0.3,0
		c0.3-0.4,0.6-0.7,0.9-1c2.9-2.8,3.9-6.2,3.5-10.2c-0.1-1.2-0.3-2.4-0.5-3.6c0-0.3-0.4-0.7-0.6-0.7c-0.3,0.1-0.6,0.4-0.8,0.6
		C48,25,48,25.4,48,25.8c0.1,2.4-0.9,4.1-3,5.1c-0.8,0.4-1.3,0.9-1.4,1.9c0,0.5-0.4,1.1-0.7,1.5c-0.1,0.2-0.5,0.3-0.6,0.3
		c-0.2,0-0.4-0.4-0.4-0.5c0-2.6-1.6-4.2-3.2-5.9c-0.9-0.9-1.7-1.9-2.5-2.9c-0.8-0.8-1.5-1.6-2.4-2.4c-0.8-0.7-1.2-1.6-1.2-2.7
		c-0.1-2.4,0.4-4.7,1.1-6.9c0.5-1.7-0.1-2.4-1.8-2.6c-3-0.3-5.9-0.1-8.7,1.1c-2.7,1.1-4.5,3.2-6,5.6c-1.3,2.1-1.8,4.5-2.2,6.9
		c-0.3,2-0.7,3.9-0.7,5.9c-0.1,3.1,1.1,5.7,3.1,8c0,0,0,0,0,0C16.9,38.7,17,38.6,16.7,39z M52,19.7c0,0,0.1,0,0.1,0
		c0.1-0.5,0.1-0.9,0.2-1.4c0.2-1.2,0.5-2.2,1.4-3.1c0.5-0.5,0.9-1,1.2-1.6c1.7-2.9,2-6,1.7-9.2c-0.1-1.2-0.7-1.7-1.9-1.4
		c-2.5,0.5-4.6,1.8-6.2,3.7c-1.5,1.7-2.6,3.5-2,5.9c0.3,1.5,1,2.8,2,3.9c-0.1-0.7-0.4-1.5-0.5-2.2c-0.1-0.8,0-1.5,0.1-2.3
		c0.2-1.3,0.9-2.2,1.8-2.4c-0.9,2.2-0.9,3.6,0.1,5.4c0.6,1.3,1.1,2.6,1.7,3.9C51.8,19.1,51.9,19.4,52,19.7z M43.6,21.6
		c-0.5-1.2-1.3-2.2-2.5-2.8c-0.5-0.2-1-0.5-1.4-0.8c-0.5-0.4-1-0.4-1.6,0c-0.5,0.4-0.6,1.2-0.3,1.7c0.3,0.6,0.9,0.4,1.5,0.4
		c0.5-0.1,1-0.2,1.5-0.1C42,20,42.7,20.9,43.6,21.6z M43.5,23c-0.3,0.5-0.6,0.9-0.8,1.3c-0.6,0.8-1.5,1.2-2.5,1
		c-1-0.2-1.7-0.9-2.1-1.8c-0.1-0.1-0.1-0.4,0-0.5c0.3-0.8,0.8-1.5,1.7-1.9c1-0.3,1.8,0.1,2.7,0.5c-0.6-1.3-2.2-1.4-3-0.9
		c-1.1,0.6-1.9,2.2-1.5,3.1c0.4,1,2,2.1,2.9,2C42.1,25.8,43.4,24.9,43.5,23z M39.1,23.9c0.3-0.7,0.6-1.3,0.9-1.9
		c-0.5-0.4-0.8-0.1-1.1,0.3C38.5,22.9,38.2,23.3,39.1,23.9z"/>
	<path class="st0" d="M39.1,37.1c-0.3,1.1-1.8,1.5-3,1.1c-0.8-0.2-1.4-0.6-2.2-1c-0.3-0.1-0.5-0.4-0.8-0.6c-1.7-1.1-2.9-1.1-4.4,0.3
		c-1.3,1.1-2.7,1.6-4.3,1c-0.5-0.2-1-0.6-1.5-1c0.9,0,1.5,0,2.2,0c1.2-0.1,2-0.7,2.9-1.4c0.6-0.5,1.2-1.1,1.8-1.6
		c0.9-0.7,0.7-2.2-0.2-2.8c-0.9-0.7-1.8-1.4-2.5-2.3c-0.8-1-0.4-2.6,0.8-3.1c1.9-0.9,3.8-1,5.7,0.2c0.9,0.6,1.2,1.7,0.8,2.8
		c-0.4,1.1-1.2,1.9-2.2,2.4c-0.9,0.4-1.1,2-0.4,2.6c1.1,0.9,2.2,1.8,3.4,2.6C36.4,37.2,37.6,37.5,39.1,37.1z M28.3,28.7
		c-0.1-0.9,0.1-1.3,0.8-1.4c0.3,0,0.6,0.1,0.9,0.2c0.3,0.1,0.6,0.3,0.8-0.1c0.2-0.5-0.1-0.7-0.5-0.8c-0.3-0.1-0.7-0.1-1-0.1
		C27.9,26.5,27.5,27.2,28.3,28.7z"/>
	<path class="st0" d="M19.3,23.5c0,0.3-0.1,0.6-0.1,1c-0.8-0.4-1-0.9-0.7-1.6c0.4-1,1.1-1.8,2-2.4c1.1-0.7,2.1-0.6,3.1,0.2
		c0.5,0.4,0.9,0.8,1.2,1.3c1.5,2.8,1.3,2.8-0.5,4.8c-0.7,0.8-1.6,1.5-2.4,2.2c0,0-0.1-0.1-0.1-0.1c0.5-0.8,0.9-1.6,1.4-2.5
		c-0.6-0.1-1.1-0.1-1.6-0.2c0-0.1,0-0.1,0-0.2c1.5-0.4,3-0.7,3.1-2.7c-0.6,1.1-1.2,2-2.5,2.1C20.7,25.5,20,24.5,19.3,23.5z
		 M21.7,21.9c-0.7-0.1-1.4,0.2-1.5,0.8c-0.1,0.5,0,0.9,0.5,1.2C21.1,23.2,21.4,22.5,21.7,21.9z M20,21.3c0.9-0.1,2-0.1,3-0.2
		C22.2,20.3,21.2,20.4,20,21.3z"/>
	<path class="st0" d="M29.2,44.8c-3,0.3-5.9,0-8.8-0.8c-3.6-0.9-6.9-2.6-9.4-5.5C16.4,42.5,22.8,43.6,29.2,44.8z"/>
	<path class="st0" d="M34.8,44.7c1-0.2,2.1-0.5,3.1-0.7c4.1-0.9,8.3-1.7,12.1-3.6c0.9-0.5,1.8-1,2.8-1.3c-0.6,0.5-1.2,1-1.8,1.5
		c-3,2.2-6.5,3.3-10.1,3.9c-1.7,0.3-3.5,0.3-5.3,0.5c-0.3,0-0.5,0-0.8,0C34.8,44.9,34.8,44.8,34.8,44.7z"/>
	<path class="st0" d="M18.8,34c0.2-0.3,0.3-0.7,0.5-0.9c1.5-1.3,3.3-2.2,5.3-2.4c0.2,0,0.5,0,0.7,0.1c0.1,0,0.3,0.2,0.3,0.3
		c0,0.2-0.2,0.4-0.3,0.4c-2.2,0.3-4.1,1.3-5.9,2.6c-0.1,0.1-0.3,0.1-0.4,0.2C19,34.1,18.9,34,18.8,34z"/>
	<path class="st0" d="M40.1,30.7c-1.2-0.4-2.3-0.8-3.5-1.2c-0.1-0.1-0.2-0.3-0.3-0.4c0.1-0.1,0.3-0.2,0.4-0.3
		C38,28.7,39.6,29.6,40.1,30.7z"/>
	<path class="st0" d="M28.3,42.3c1.9,0,3.9,0,5.8,0C32.2,42.9,30.2,42.8,28.3,42.3z"/>
	<path class="st0" d="M28.3,28.7c-0.9-1.5-0.5-2.2,1-2.2c0.3,0,0.7,0,1,0.1c0.4,0.1,0.6,0.4,0.5,0.8c-0.2,0.5-0.5,0.2-0.8,0.1
		c-0.3-0.1-0.6-0.2-0.9-0.2C28.5,27.4,28.2,27.8,28.3,28.7z"/>
	<path class="st0" d="M21.7,21.9c-0.3,0.7-0.7,1.3-1,2c-0.5-0.3-0.6-0.8-0.5-1.2C20.3,22.1,21,21.8,21.7,21.9z"/>
	<path class="st0" d="M20,21.3c1.1-0.9,2.1-1,3-0.2C22,21.2,21,21.3,20,21.3z"/>
	<g>
		<path class="st0" d="M80.8,16c0,2.1-0.5,3.7-1.6,5c-1.2,1.4-2.7,2-4.8,2c-0.3,0-0.8,0-1.5-0.1c-0.7,0-1.2-0.1-1.5-0.1
			c-0.4,0-0.5,0.2-0.5,0.5c0,0.4,0,1,0.1,1.7c0.1,0.8,0.1,1.4,0.1,1.7c0,0.2-0.1,0.3-0.3,0.3c-0.5,0-1.3,0-2.3,0c-1,0-1.8,0-2.3,0
			c-0.2,0-0.4-0.1-0.4-0.4c0-0.9,0-2.4,0-4.2c0-1.9,0-3.3,0-4.2c0-2.7-0.1-5.5-0.3-8.4l0-0.2c0-0.2,0.1-0.3,0.4-0.3
			c0.7-0.1,2.1-0.1,4.4-0.1c1.3,0,2.6,0,3.8,0.1c2,0.1,3.6,0.7,4.8,1.9C80.2,12.4,80.8,14,80.8,16z M75.7,16.2c0-2-1-3-2.9-3
			c-1.4,0-2.1,0.1-2.1,0.2c-0.1,0.1-0.1,1.1-0.1,2.9c0,0.3,0,0.7,0,1.2c0,0.5,0,0.9,0,1.2c0,0.2,0.8,0.3,2.3,0.3
			C74.8,19,75.7,18.1,75.7,16.2z"/>
		<path class="st0" d="M94.1,20.2c0,0.9-0.3,1.3-0.8,1.5c-0.1,0-1,0.1-2.6,0.3c-1,0.1-2.5,0.2-4.5,0.4c0.1,0.6,0.5,1,1.1,1.3
			c0.5,0.2,1,0.4,1.7,0.4c0.8,0,1.5-0.2,2.3-0.6c0.3-0.2,0.6-0.4,1-0.6c0.2,0.1,0.5,0.5,0.9,1.3c0.4,0.8,0.6,1.3,0.6,1.5
			c0,0.1-0.1,0.2-0.2,0.3c-1,1.1-2.6,1.7-4.8,1.7c-2,0-3.6-0.6-4.9-1.8c-1.3-1.2-1.9-2.8-1.9-4.8c0-2,0.6-3.6,1.7-4.8
			c1.2-1.3,2.7-1.9,4.6-1.9c1.6,0,3,0.6,4.1,1.8C93.5,17.1,94.1,18.5,94.1,20.2z M89.6,19.4c0-0.5-0.2-1-0.6-1.4s-0.8-0.6-1.3-0.6
			c-0.5,0-1,0.2-1.3,0.7C86.1,18.5,86,19,86,19.5c0,0.2,0.1,0.3,0.4,0.3c0.6,0,1.6-0.1,2.9-0.3C89.5,19.6,89.6,19.5,89.6,19.4z"/>
		<path class="st0" d="M104,23.4c0,0.3,0,0.6-0.1,1.2c-0.1,0.5-0.1,0.9-0.1,1.1c0,0.2,0,0.4-0.1,0.5c-0.1,0.1-0.2,0.2-0.4,0.3
			c-1.1,0.6-2.3,0.9-3.6,0.9c-2.4,0-3.7-0.9-3.7-2.8c0-0.6,0-1.4,0.1-2.5c0-1.1,0.1-2,0.1-2.5c0-0.4-0.2-0.6-0.6-0.6
			c0,0-0.1,0-0.2,0c-0.1,0-0.1,0-0.2,0c-0.3,0-0.5-0.1-0.5-0.3c0-0.1,0-0.3,0-0.6s0-0.5,0-0.6c0-0.2,0-0.5,0-0.8c0-0.4,0-0.6,0-0.8
			c0-0.2,0.3-0.3,0.8-0.3c0.3,0,0.5-0.1,0.5-0.3c0.1-0.3,0.1-0.8,0.1-1.5C96,12.5,96,12,96,12c0-1,0.1-1.5,0.3-1.5
			c0.2,0,0.6,0.1,1,0.2c0.5,0.1,0.8,0.2,1,0.2c0.4,0.1,1.1,0.1,2,0.2c0.2,0,0.3,0.1,0.3,0.2c0,0.3,0,0.9-0.1,1.5
			c-0.1,0.7-0.1,1.2-0.1,1.6c0,0.4,0.1,0.6,0.4,0.6c0.3,0,0.7,0,1.3,0c0.6,0,1.1,0,1.4,0c0.2,0,0.3,0.1,0.3,0.2c0,0.2,0,0.5-0.1,0.9
			c0,0.4-0.1,0.7-0.1,0.9c0,0.2,0,0.5,0,0.9c0,0.4,0,0.7,0,0.9c0,0.2-0.1,0.3-0.4,0.3c-0.2,0-0.5,0-0.9,0c-0.4,0-0.7,0-0.9,0h-1
			c-0.1,0-0.2,0.2-0.2,0.6c0,0.2,0,0.5,0,0.9c0,0.4,0,0.7,0,0.9c0,0.7,0.1,1.2,0.2,1.5c0.2,0.4,0.7,0.5,1.3,0.5c0.2,0,0.5,0,0.9-0.1
			c0.4-0.1,0.7-0.1,0.8-0.1C103.9,23.1,104,23.2,104,23.4z"/>
		<path class="st0" d="M112.7,16.8c0,0.1-0.1,0.2-0.2,0.3c-0.2-0.1-0.5-0.1-0.7-0.1c-0.5,0-0.9,0.1-1.3,0.3
			c-0.4,0.3-0.6,0.6-0.6,1.1c0,0.3,0.2,0.7,0.6,1.1c0.7,0.7,1.1,1.2,1.2,1.4c0.4,0.6,0.6,1.3,0.6,2.1c0,0.4-0.1,0.9-0.3,1.4
			c-0.2,0.5-0.4,0.9-0.7,1.2c-0.6,0.5-1.4,1-2.2,1.4c-0.9,0.4-1.7,0.6-2.5,0.6c-0.2,0-0.5-0.5-1.1-1.4c-0.6-0.9-0.9-1.5-0.9-1.7
			c0-0.1,0-0.1,0.1-0.1c0.6-0.1,1.2-0.2,1.8-0.3c0.7-0.2,1.1-0.6,1.1-1.2c0-0.4-0.2-0.8-0.6-1.3c-0.8-0.9-1.2-1.3-1.2-1.4
			c-0.4-0.6-0.6-1.3-0.6-1.9c0-1.3,0.6-2.4,1.9-3.2c1.2-0.8,2.4-1.2,3.7-1.2c0.1,0,0.5,0.5,1,1.4C112.5,16.1,112.7,16.6,112.7,16.8z
			"/>
	</g>
	<g>
		<path class="st0" d="M66.3,33.9c0,0.1,0,0.1-0.1,0.1c-0.4,0-0.7,0-0.9,0c0,0.3,0,0.6,0,1.1c0,0.2,0,0.5,0,1c0,0.4,0,0.8,0,1
			c0,0.1,0,0.1-0.1,0.1c-0.1,0-0.4,0-0.9,0c-0.4,0-0.6,0-0.7,0s-0.2-0.1-0.2-0.2v-2.8c0-0.1-0.1-0.1-0.2-0.1c0,0-0.1,0-0.1,0
			c-0.1,0-0.1,0-0.1,0C63,34,63,34,63,33.9c0-0.3,0-0.7,0-1.3c0-0.1,0.1-0.2,0.2-0.2c0.1,0,0.2,0,0.4,0c0-0.3,0-0.5,0-0.6
			c0-0.6,0.1-1,0.3-1.3c0.5-0.5,1.2-0.8,2.2-0.8c0.1,0,0.1,0,0.1,0.1c0,0.2,0.1,0.4,0.1,0.7c0,0,0,0.1,0.1,0.3c0,0.1,0,0.2,0,0.3
			c0,0.1-0.1,0.1-0.4,0.2c-0.3,0-0.4,0.1-0.5,0.2c-0.1,0.1-0.2,0.4-0.2,0.7c0,0.1,0,0.2,0,0.3c0.1,0,0.2,0,0.4,0c0.2,0,0.4,0,0.5,0
			s0.2,0,0.2,0.1c0,0.2,0,0.4,0,0.7C66.3,33.5,66.3,33.7,66.3,33.9z"/>
		<path class="st0" d="M71.8,34.7c0,0.8-0.2,1.4-0.7,1.9s-1.1,0.7-1.9,0.7c-0.7,0-1.4-0.2-1.8-0.7c-0.5-0.5-0.7-1.1-0.7-1.8
			c0-0.8,0.2-1.4,0.7-1.9s1.1-0.7,1.9-0.7c0.8,0,1.4,0.2,1.9,0.7C71.5,33.3,71.8,33.9,71.8,34.7z M70.1,34.7c0-0.3-0.1-0.5-0.2-0.7
			s-0.4-0.3-0.6-0.3c-0.3,0-0.5,0.1-0.7,0.3c-0.2,0.2-0.2,0.4-0.2,0.7c0,0.3,0.1,0.5,0.2,0.7c0.2,0.2,0.4,0.3,0.7,0.3
			c0.3,0,0.5-0.1,0.7-0.3C70,35.2,70.1,34.9,70.1,34.7z"/>
		<path class="st0" d="M75.8,34c0,0.1-0.1,0.2-0.2,0.2c-0.1,0-0.2,0-0.3,0s-0.2,0-0.3,0c-0.3,0-0.5,0-0.6,0.1s-0.2,0.3-0.2,0.5
			c0,0.1,0,0.4,0,0.7s0,0.5,0,0.7c0,0.1,0,0.2,0,0.4c0,0.2,0,0.3,0,0.4c0,0.1-0.1,0.1-0.2,0.1c-0.2,0-0.4,0-0.7,0
			c-0.3,0-0.6,0-0.8,0c-0.1,0-0.2-0.1-0.2-0.2c0-0.3,0-0.7,0-1.2c0-0.5,0-0.9,0-1.2c0-0.8-0.1-1.5-0.2-2c0,0,0-0.1,0-0.1
			c0-0.1,0-0.1,0.1-0.1c0.2,0,0.5-0.1,0.8-0.1c0.5-0.1,0.8-0.2,0.8-0.2c0.1,0,0.1,0.1,0.1,0.3c0,0.2,0,0.3,0.1,0.3
			c0,0,0.1-0.1,0.4-0.3c0.3-0.2,0.6-0.3,0.9-0.3c0.2,0,0.3,0,0.3,0.1c0,0.1,0,0.2,0,0.4c0,0.2,0,0.3,0,0.4c0,0.1,0,0.2,0,0.4
			C75.8,33.8,75.8,33.9,75.8,34z"/>
		<path class="st0" d="M82.3,35.7c0,0.1,0,0.3,0,0.5c0,0.2,0,0.4,0,0.5s0,0.2,0,0.2c0,0-0.1,0.1-0.2,0.1c-0.4,0.2-0.9,0.4-1.5,0.4
			c-1,0-1.5-0.4-1.5-1.1c0-0.2,0-0.6,0-1c0-0.5,0-0.8,0-1c0-0.1-0.1-0.2-0.3-0.2c0,0,0,0-0.1,0c0,0-0.1,0-0.1,0
			c-0.1,0-0.2,0-0.2-0.1c0-0.1,0-0.1,0-0.2s0-0.2,0-0.2c0-0.1,0-0.2,0-0.3c0-0.1,0-0.3,0-0.3c0-0.1,0.1-0.1,0.3-0.1
			c0.1,0,0.2,0,0.2-0.1c0-0.1,0-0.3,0-0.6c0-0.4,0-0.6,0-0.6c0-0.4,0-0.6,0.1-0.6c0.1,0,0.2,0,0.4,0.1c0.2,0,0.3,0.1,0.4,0.1
			c0.2,0,0.4,0.1,0.8,0.1c0.1,0,0.1,0,0.1,0.1c0,0.1,0,0.3,0,0.6c0,0.3,0,0.5,0,0.6c0,0.2,0,0.2,0.1,0.2c0.1,0,0.3,0,0.5,0
			c0.2,0,0.4,0,0.5,0c0.1,0,0.1,0,0.1,0.1c0,0.1,0,0.2,0,0.4c0,0.2,0,0.3,0,0.4c0,0.1,0,0.2,0,0.4c0,0.2,0,0.3,0,0.4
			c0,0.1,0,0.1-0.1,0.1c-0.1,0-0.2,0-0.3,0c-0.2,0-0.3,0-0.3,0H81c-0.1,0-0.1,0.1-0.1,0.2c0,0.1,0,0.2,0,0.4c0,0.2,0,0.3,0,0.4
			c0,0.3,0,0.5,0.1,0.6c0.1,0.1,0.3,0.2,0.5,0.2c0.1,0,0.2,0,0.4-0.1c0.2,0,0.3-0.1,0.3-0.1C82.3,35.6,82.3,35.6,82.3,35.7z"/>
		<path class="st0" d="M87.9,33.5l0,3.5c0,0.1,0,0.2-0.1,0.2c-0.1,0-0.4,0-0.7,0c-0.4,0-0.6,0-0.8,0c-0.1,0-0.2-0.1-0.2-0.2
			c0-0.3,0-0.7,0-1.3c0-0.6,0-1,0-1.3c0-0.4-0.2-0.6-0.6-0.6c-0.1,0-0.3,0.1-0.5,0.2c-0.2,0.1-0.3,0.2-0.3,0.4v1.3
			c0,0.2,0,0.4,0,0.7c0,0.3,0,0.6,0,0.7c0,0.1-0.1,0.2-0.2,0.2c-0.1,0-0.4,0-0.9,0c-0.3,0-0.5,0-0.6,0C83,37.1,83,37.1,83,37
			c0-0.3,0-0.7,0-1.2c0-0.5,0-0.9,0-1.2c0-1.1,0-2,0-2.8c0-0.3,0-0.5,0-0.8c0-0.3,0-0.5-0.1-0.8c0,0,0-0.1,0-0.1
			c0-0.1,0-0.1,0.1-0.1c0.1,0,0.3,0,0.5-0.1c0.3,0,0.4,0,0.5,0l0.9-0.1c0.1,0,0.1,0,0.1,0.1c0,0.1,0,0.3,0,0.4c0,0.2,0,0.4,0,0.4
			c0,0.8,0,1.4,0,1.8c0,0.1,0,0.1,0.1,0.1c0,0,0.1-0.1,0.3-0.2c0.2-0.1,0.4-0.2,0.6-0.3c0.3-0.1,0.5-0.2,0.8-0.2
			c0.4,0,0.8,0.1,1.1,0.3C87.8,32.7,87.9,33,87.9,33.5z"/>
		<path class="st0" d="M93.4,34.4c0,0.3-0.1,0.5-0.3,0.6c0,0-0.4,0-1.1,0.1c-0.4,0-1,0.1-1.8,0.2c0,0.2,0.2,0.4,0.4,0.5
			c0.2,0.1,0.4,0.1,0.7,0.1c0.3,0,0.6-0.1,0.9-0.2c0.1-0.1,0.3-0.2,0.4-0.2c0.1,0,0.2,0.2,0.4,0.5c0.2,0.3,0.3,0.5,0.3,0.6
			c0,0,0,0.1-0.1,0.1c-0.4,0.4-1.1,0.7-1.9,0.7c-0.8,0-1.5-0.2-1.9-0.7c-0.5-0.5-0.8-1.1-0.8-1.9c0-0.8,0.2-1.4,0.7-1.9
			c0.5-0.5,1.1-0.8,1.9-0.8c0.6,0,1.2,0.2,1.7,0.7C93.2,33.2,93.4,33.7,93.4,34.4z M91.6,34.1c0-0.2-0.1-0.4-0.2-0.6
			c-0.1-0.2-0.3-0.2-0.5-0.2c-0.2,0-0.4,0.1-0.5,0.3c-0.1,0.2-0.2,0.4-0.2,0.6c0,0.1,0,0.1,0.1,0.1c0.3,0,0.6,0,1.2-0.1
			C91.6,34.2,91.6,34.1,91.6,34.1z"/>
		<path class="st0" d="M102.1,34.7c0,0.7-0.2,1.3-0.6,1.8c-0.4,0.5-1,0.8-1.7,0.8c-0.5,0-0.9-0.1-1.2-0.4c0,0,0,0-0.1,0
			c0,0-0.1,0.1-0.1,0.2s-0.1,0.2-0.1,0.2c-0.1,0-0.5,0-1.4,0c-0.2,0-0.3,0-0.3-0.1c0,0,0,0,0-0.1c0.1-0.5,0.1-1.6,0.1-3.1
			c0-1.5-0.1-2.7-0.2-3.8l0-0.1c0-0.1,0.1-0.1,0.2-0.1c0.1,0,0.4,0,0.9-0.1c0.4,0,0.7-0.1,0.9-0.1c0.1,0,0.1,0.1,0.1,0.2
			c0,0.1,0,0.3,0,0.5c0,0.3,0,0.4,0,0.5c0,0.3,0,0.8,0,1.4c0,0.1,0,0.2,0.1,0.2c0,0,0.1,0,0.1,0c0.3-0.3,0.7-0.5,1.2-0.5
			c0.7,0,1.3,0.3,1.7,0.8C101.9,33.3,102.1,33.9,102.1,34.7z M100.2,34.6c0-0.3-0.1-0.5-0.3-0.7c-0.2-0.2-0.4-0.3-0.7-0.3
			c-0.3,0-0.5,0.1-0.7,0.3c-0.2,0.2-0.2,0.4-0.2,0.7c0,0.3,0.1,0.5,0.2,0.7c0.2,0.2,0.4,0.3,0.7,0.3c0.3,0,0.5-0.1,0.7-0.3
			C100.2,35.2,100.2,34.9,100.2,34.6z"/>
		<path class="st0" d="M107.3,34.4c0,0.3-0.1,0.5-0.3,0.6c0,0-0.4,0-1.1,0.1c-0.4,0-1,0.1-1.8,0.2c0,0.2,0.2,0.4,0.4,0.5
			c0.2,0.1,0.4,0.1,0.7,0.1c0.3,0,0.6-0.1,0.9-0.2c0.1-0.1,0.3-0.2,0.4-0.2c0.1,0,0.2,0.2,0.4,0.5c0.2,0.3,0.3,0.5,0.3,0.6
			c0,0,0,0.1-0.1,0.1c-0.4,0.4-1.1,0.7-1.9,0.7c-0.8,0-1.5-0.2-1.9-0.7c-0.5-0.5-0.8-1.1-0.8-1.9c0-0.8,0.2-1.4,0.7-1.9
			c0.5-0.5,1.1-0.8,1.9-0.8c0.6,0,1.2,0.2,1.7,0.7C107.1,33.2,107.3,33.7,107.3,34.4z M105.6,34.1c0-0.2-0.1-0.4-0.2-0.6
			c-0.1-0.2-0.3-0.2-0.5-0.2c-0.2,0-0.4,0.1-0.5,0.3c-0.1,0.2-0.2,0.4-0.2,0.6c0,0.1,0,0.1,0.1,0.1c0.3,0,0.6,0,1.2-0.1
			C105.5,34.2,105.6,34.1,105.6,34.1z"/>
		<path class="st0" d="M110.9,33c0,0,0,0.1-0.1,0.1c-0.1,0-0.2,0-0.3,0c-0.2,0-0.4,0-0.5,0.1c-0.2,0.1-0.2,0.2-0.2,0.4
			c0,0.1,0.1,0.3,0.3,0.5c0.3,0.3,0.4,0.5,0.5,0.6c0.2,0.3,0.3,0.5,0.3,0.8c0,0.2,0,0.4-0.1,0.6c-0.1,0.2-0.2,0.4-0.3,0.5
			c-0.3,0.2-0.5,0.4-0.9,0.6c-0.4,0.2-0.7,0.2-1,0.2c-0.1,0-0.2-0.2-0.5-0.6s-0.4-0.6-0.4-0.7c0,0,0,0,0.1-0.1
			c0.2,0,0.5-0.1,0.7-0.1c0.3-0.1,0.4-0.3,0.4-0.5c0-0.1-0.1-0.3-0.3-0.5c-0.3-0.3-0.5-0.5-0.5-0.5c-0.2-0.2-0.3-0.5-0.3-0.8
			c0-0.5,0.3-0.9,0.8-1.3c0.5-0.3,1-0.5,1.5-0.5c0.1,0,0.2,0.2,0.4,0.5S110.9,33,110.9,33z"/>
		<path class="st0" d="M115,35.7c0,0.1,0,0.3,0,0.5c0,0.2,0,0.4,0,0.5s0,0.2,0,0.2c0,0-0.1,0.1-0.2,0.1c-0.4,0.2-0.9,0.4-1.5,0.4
			c-1,0-1.5-0.4-1.5-1.1c0-0.2,0-0.6,0-1c0-0.5,0-0.8,0-1c0-0.1-0.1-0.2-0.3-0.2c0,0,0,0-0.1,0c0,0-0.1,0-0.1,0
			c-0.1,0-0.2,0-0.2-0.1c0-0.1,0-0.1,0-0.2s0-0.2,0-0.2c0-0.1,0-0.2,0-0.3c0-0.1,0-0.3,0-0.3c0-0.1,0.1-0.1,0.3-0.1
			c0.1,0,0.2,0,0.2-0.1c0-0.1,0-0.3,0-0.6c0-0.4,0-0.6,0-0.6c0-0.4,0-0.6,0.1-0.6c0.1,0,0.2,0,0.4,0.1c0.2,0,0.3,0.1,0.4,0.1
			c0.2,0,0.4,0.1,0.8,0.1c0.1,0,0.1,0,0.1,0.1c0,0.1,0,0.3,0,0.6c0,0.3,0,0.5,0,0.6c0,0.2,0,0.2,0.1,0.2c0.1,0,0.3,0,0.5,0
			c0.2,0,0.4,0,0.5,0c0.1,0,0.1,0,0.1,0.1c0,0.1,0,0.2,0,0.4c0,0.2,0,0.3,0,0.4c0,0.1,0,0.2,0,0.4c0,0.2,0,0.3,0,0.4
			c0,0.1,0,0.1-0.1,0.1c-0.1,0-0.2,0-0.3,0c-0.2,0-0.3,0-0.3,0h-0.4c-0.1,0-0.1,0.1-0.1,0.2c0,0.1,0,0.2,0,0.4c0,0.2,0,0.3,0,0.4
			c0,0.3,0,0.5,0.1,0.6c0.1,0.1,0.3,0.2,0.5,0.2c0.1,0,0.2,0,0.4-0.1c0.2,0,0.3-0.1,0.3-0.1C115,35.6,115,35.6,115,35.7z"/>
	</g>
</g>
</svg>
