<?xml version="1.0" encoding="UTF-8"?><svg viewBox="0 0 32 29" xmlns="http://www.w3.org/2000/svg" xmlns:xlink="http://www.w3.org/1999/xlink"><style>:root>svg{display:none}:root>svg:target{display:block}</style><svg viewBox="0 0 13 14" id="angle-down" xmlns="http://www.w3.org/2000/svg"><path style="stroke:none;fill-rule:nonzero;fill:#000;fill-opacity:1" d="M5.844 10.242a.97.97 0 0 0 1.316 0l4.64-4.375a.84.84 0 0 0 0-1.238.972.972 0 0 0-1.312 0L6.5 8.387 2.512 4.633a.964.964 0 0 0-1.313 0 .84.84 0 0 0 0 1.238l4.64 4.375Zm0 0"/></svg><svg fill="none" viewBox="0 0 12 10" id="arrow-left" xmlns="http://www.w3.org/2000/svg"><path d="M11 5H1m0 0 4 4M1 5l4-4" stroke="#002A48" stroke-width="2" stroke-linecap="round" stroke-linejoin="round"/></svg><svg fill="none" viewBox="0 0 24 24" id="chat-icon" xmlns="http://www.w3.org/2000/svg"><path d="M21 14.8V7.197c0-1.118 0-1.678-.218-2.105a2 2 0 0 0-.874-.874C19.48 4 18.92 4 17.8 4H6.2c-1.12 0-1.68 0-2.108.218a2 2 0 0 0-.874.874C3 5.52 3 6.08 3 7.2V18.67c0 1.066 0 1.599.218 1.872a1 1 0 0 0 .783.376c.35 0 .766-.333 1.599-.999l1.524-1.219c.324-.26.487-.39.668-.482a2 2 0 0 1 .507-.178C8.5 18 8.707 18 9.123 18H17.8c1.12 0 1.68 0 2.108-.218a2 2 0 0 0 .874-.874c.218-.427.218-.987.218-2.105V14.8Z" stroke="#002A48" stroke-width="2" stroke-linecap="round" stroke-linejoin="round"/></svg><svg fill="none" viewBox="0 0 12 9" id="checked" xmlns="http://www.w3.org/2000/svg"><path d="M4.196 8.393a.587.587 0 0 1-.416-.173L.173 4.613a.588.588 0 1 1 .832-.833l3.191 3.19L10.995.174a.588.588 0 1 1 .832.833L4.613 8.22a.588.588 0 0 1-.417.173Z" fill="#363853"/></svg><svg viewBox="0 0 24 24" id="chevron-down" xmlns="http://www.w3.org/2000/svg"><path style="stroke:none;fill-rule:nonzero;fill:#000;fill-opacity:1" d="M10.941 19.059a1.5 1.5 0 0 0 2.121 0l9-9a1.5 1.5 0 1 0-2.12-2.121L12 15.875 4.059 7.941a1.5 1.5 0 1 0-2.122 2.122l9 9Zm0 0"/></svg><svg viewBox="0 0 24 24" style="enable-background:new 0 0 24 24" xml:space="preserve" id="chevron-right" xmlns="http://www.w3.org/2000/svg"><path d="M17.6 13.1c.6-.6.6-1.5 0-2.1l-9-9C8 1.4 7 1.4 6.4 1.9s-.6 1.5 0 2.1l7.9 7.9-7.9 7.9c-.6.6-.6 1.5 0 2.1.6.6 1.5.6 2.1 0l9.1-8.8z"/></svg><svg fill="none" viewBox="0 0 24 24" id="facebook" xmlns="http://www.w3.org/2000/svg"><g clip-path="url(#ga)"><path d="M24 12c0-6.627-5.373-12-12-12S0 5.373 0 12c0 5.99 4.388 10.954 10.125 11.854V15.47H7.078V12h3.047V9.356c0-3.007 1.792-4.668 4.533-4.668 1.312 0 2.686.234 2.686.234v2.953H15.83c-1.491 0-1.956.925-1.956 1.875V12h3.328l-.532 3.469h-2.796v8.385C19.612 22.954 24 17.99 24 12Z" fill="#00171F"/></g><defs><clipPath id="ga"><path fill="#fff" d="M0 0h24v24H0z"/></clipPath></defs></svg><svg fill="none" viewBox="0 0 18 19" id="filter-icon" xmlns="http://www.w3.org/2000/svg"><path d="M17 3.337V2.6c0-.56 0-.84-.11-1.054a.998.998 0 0 0-.436-.437C16.241 1 15.96 1 15.4 1H2.6c-.56 0-.84 0-1.054.109a1 1 0 0 0-.437.437C1 1.76 1 2.04 1 2.6v.737c0 .245 0 .367.028.482a1 1 0 0 0 .12.29c.061.1.148.187.32.36h0L6.532 9.53c.173.173.26.26.322.36a1 1 0 0 1 .12.29c.027.114.027.235.027.474v4.756c0 .857 0 1.286.18 1.544a1 1 0 0 0 .674.416c.311.046.695-.145 1.461-.529l.8-.4c.322-.16.482-.24.6-.36a1 1 0 0 0 .23-.374c.055-.159.055-.338.055-.697v-4.348c0-.245 0-.367.028-.482a.998.998 0 0 1 .12-.29c.061-.1.148-.187.32-.36h0l5.064-5.062c.172-.173.259-.26.32-.36.055-.09.096-.188.12-.29.028-.114.028-.235.028-.474v-.008Z" stroke="#002A48" stroke-width="2" stroke-linecap="round" stroke-linejoin="round"/></svg><svg fill="none" viewBox="0 0 32 29" id="heart-icon" xmlns="http://www.w3.org/2000/svg"><path d="M29.665 2.777C28.087.987 25.897 0 23.5 0c-3.372 0-5.506 2.014-6.703 3.703-.311.438-.575.878-.797 1.292a12.245 12.245 0 0 0-.797-1.292C14.006 2.013 11.872 0 8.5 0 6.103 0 3.913.986 2.335 2.777.829 4.486 0 6.774 0 9.22c0 2.662 1.04 5.139 3.272 7.793 1.994 2.373 4.864 4.818 8.187 7.65a385.452 385.452 0 0 1 3.883 3.34l.04.035a.935.935 0 0 0 1.236 0l.04-.035c1.364-1.193 2.644-2.284 3.883-3.34 3.323-2.832 6.193-5.277 8.187-7.65C30.96 14.36 32 11.883 32 9.22c0-2.446-.83-4.734-2.335-6.443Zm-10.34 20.46c-1.068.909-2.167 1.845-3.325 2.852-1.158-1.007-2.257-1.943-3.325-2.853-6.503-5.542-10.8-9.203-10.8-14.016 0-1.99.663-3.837 1.866-5.203A6.258 6.258 0 0 1 8.5 1.875c2.57 0 4.232 1.584 5.174 2.912a11.113 11.113 0 0 1 1.435 2.854.937.937 0 0 0 1.782 0c.15-.461.591-1.662 1.436-2.854.94-1.328 2.602-2.912 5.173-2.912 1.851 0 3.541.76 4.759 2.142 1.203 1.366 1.866 3.213 1.866 5.203 0 4.813-4.297 8.474-10.8 14.016Z" fill="#fff"/></svg><svg fill="none" viewBox="0 0 21 20" id="icon-cart" xmlns="http://www.w3.org/2000/svg"><path d="m1 1 2.08.356.963 11.34c.077.926.86 1.636 1.8 1.633h10.909a1.794 1.794 0 0 0 1.785-1.528l.949-6.481a1.328 1.328 0 0 0-1.135-1.502c-.064-.009-14.937-.014-14.937-.014M12.375 8.458h2.773" stroke="#000" stroke-width="1.5" stroke-linecap="round" stroke-linejoin="round"/><path fill-rule="evenodd" clip-rule="evenodd" d="M5.404 17.756a.54.54 0 0 1 .544.538.541.541 0 0 1-.544.539.541.541 0 0 1-.544-.54.54.54 0 0 1 .544-.537ZM16.685 17.756c.3 0 .545.241.545.538a.542.542 0 0 1-.545.539.541.541 0 0 1-.544-.54.54.54 0 0 1 .544-.537Z" fill="#000" stroke="#000" stroke-width="1.5" stroke-linecap="round" stroke-linejoin="round"/></svg><svg fill="none" viewBox="0 0 24 24" id="instagram" xmlns="http://www.w3.org/2000/svg"><g clip-path="url(#ka)" fill="#00171F"><path d="M12 2.16c3.206 0 3.586.015 4.847.071 1.172.052 1.805.249 2.226.413a3.71 3.71 0 0 1 1.379.895c.421.422.68.82.895 1.378.164.422.36 1.06.412 2.227.057 1.265.07 1.645.07 4.847 0 3.206-.013 3.586-.07 4.846-.051 1.172-.248 1.805-.412 2.227-.216.558-.478.961-.895 1.378a3.69 3.69 0 0 1-1.379.895c-.421.165-1.059.361-2.226.413-1.266.056-1.645.07-4.847.07-3.206 0-3.586-.014-4.847-.07-1.172-.052-1.805-.248-2.226-.413a3.71 3.71 0 0 1-1.379-.895 3.691 3.691 0 0 1-.895-1.378c-.164-.422-.36-1.06-.412-2.227-.057-1.265-.07-1.645-.07-4.846 0-3.207.013-3.586.07-4.847.051-1.172.248-1.805.412-2.227.216-.558.478-.96.895-1.378.422-.422.82-.68 1.379-.895.421-.164 1.059-.361 2.226-.413 1.261-.056 1.64-.07 4.847-.07ZM12 0C8.742 0 8.334.014 7.055.07 5.78.127 4.903.333 4.144.628a5.857 5.857 0 0 0-2.128 1.388A5.88 5.88 0 0 0 .628 4.139C.333 4.903.127 5.775.07 7.05.014 8.334 0 8.742 0 12s.014 3.666.07 4.945c.057 1.275.263 2.152.558 2.911.31.792.717 1.463 1.388 2.128a5.866 5.866 0 0 0 2.123 1.383c.764.296 1.636.502 2.911.558 1.28.056 1.688.07 4.945.07 3.258 0 3.666-.014 4.946-.07 1.275-.056 2.151-.262 2.91-.558a5.866 5.866 0 0 0 2.124-1.383 5.866 5.866 0 0 0 1.383-2.123c.295-.764.501-1.636.558-2.911.056-1.28.07-1.688.07-4.945 0-3.258-.014-3.666-.07-4.946-.057-1.275-.263-2.151-.558-2.91a5.62 5.62 0 0 0-1.374-2.133A5.866 5.866 0 0 0 19.861.633C19.097.338 18.225.13 16.95.075 15.666.015 15.258 0 12 0Z"/><path d="M12 5.836A6.166 6.166 0 0 0 5.836 12 6.166 6.166 0 0 0 12 18.164 6.166 6.166 0 0 0 18.164 12 6.166 6.166 0 0 0 12 5.836Zm0 10.162A3.999 3.999 0 1 1 12.001 8 3.999 3.999 0 0 1 12 15.998ZM19.847 5.592a1.44 1.44 0 1 1-2.879 0 1.44 1.44 0 0 1 2.879 0Z"/></g><defs><clipPath id="ka"><path fill="#fff" d="M0 0h24v24H0z"/></clipPath></defs></svg><svg viewBox="0 0 24 24" id="play-circle" xmlns="http://www.w3.org/2000/svg"><path style="stroke:none;fill-rule:nonzero;fill:#000;fill-opacity:1" d="M8.828 6.895c.352-.2.785-.235 1.133.02l6.75 4.124c.332.207.539.566.539.961s-.207.754-.54.96l-6.75 4.126a1.12 1.12 0 0 1-1.132.02 1.12 1.12 0 0 1-.578-.981V7.832c0-.363.219-.738.578-.937ZM24 12c0 6.629-5.371 12-12 12S0 18.629 0 12 5.371 0 12 0s12 5.371 12 12ZM12 2.25A9.748 9.748 0 0 0 2.25 12 9.748 9.748 0 0 0 12 21.75 9.748 9.748 0 0 0 21.75 12 9.748 9.748 0 0 0 12 2.25Zm0 0"/></svg><svg fill="none" viewBox="0 0 24 24" id="search-magnifying-glass" xmlns="http://www.w3.org/2000/svg"><path d="M15.707 14.293a1 1 0 0 0-1.414 1.414l1.414-1.414Zm4.586 7.414a1 1 0 0 0 1.414-1.414l-1.414 1.414ZM10 16a6 6 0 0 1-6-6H2a8 8 0 0 0 8 8v-2Zm-6-6a6 6 0 0 1 6-6V2a8 8 0 0 0-8 8h2Zm6-6a6 6 0 0 1 6 6h2a8 8 0 0 0-8-8v2Zm6 6a6 6 0 0 1-6 6v2a8 8 0 0 0 8-8h-2Zm-1.707 5.707 6 6 1.414-1.414-6-6-1.414 1.414Z" fill="#fff"/></svg><svg fill="none" viewBox="0 0 20 20" id="share-icon" xmlns="http://www.w3.org/2000/svg"><path d="m7.5 11.25 5 2.5m0-7.5-5 2.5M15 17.5a2.5 2.5 0 1 1 0-5 2.5 2.5 0 0 1 0 5Zm-10-5a2.5 2.5 0 1 1 0-5 2.5 2.5 0 0 1 0 5Zm10-5a2.5 2.5 0 1 1 0-5 2.5 2.5 0 0 1 0 5Z" stroke="#002A48" stroke-width="2" stroke-linecap="round" stroke-linejoin="round"/></svg><svg fill="none" viewBox="0 0 24 24" id="twitter" xmlns="http://www.w3.org/2000/svg"><g clip-path="url(#oa)"><path d="M7.55 21.75c9.055 0 14.008-7.503 14.008-14.008 0-.21-.004-.426-.014-.637A9.999 9.999 0 0 0 24 4.555c-.898.4-1.85.66-2.826.774a4.95 4.95 0 0 0 2.165-2.723 9.897 9.897 0 0 1-3.126 1.195 4.93 4.93 0 0 0-8.394 4.49A13.985 13.985 0 0 1 1.673 3.15a4.93 4.93 0 0 0 1.523 6.57 4.93 4.93 0 0 1-2.23-.614v.061a4.922 4.922 0 0 0 3.95 4.828 4.894 4.894 0 0 1-2.221.085A4.934 4.934 0 0 0 7.292 17.5 9.875 9.875 0 0 1 0 19.54a13.969 13.969 0 0 0 7.55 2.211Z" fill="#00171F"/></g><defs><clipPath id="oa"><path fill="#fff" d="M0 0h24v24H0z"/></clipPath></defs></svg><svg fill="none" viewBox="0 0 24 24" id="youtube" xmlns="http://www.w3.org/2000/svg"><path d="M23.76 7.2s-.233-1.655-.955-2.381c-.914-.957-1.936-.961-2.405-1.018-3.356-.243-8.395-.243-8.395-.243h-.01s-5.039 0-8.395.243c-.469.057-1.49.061-2.405 1.018-.722.726-.951 2.38-.951 2.38S0 9.146 0 11.087v1.819c0 1.94.24 3.885.24 3.885s.233 1.655.95 2.382c.915.956 2.115.923 2.65 1.026 1.92.183 8.16.24 8.16.24s5.044-.01 8.4-.25c.469-.055 1.49-.06 2.405-1.016.722-.727.956-2.382.956-2.382S24 14.85 24 12.905v-1.82c0-1.94-.24-3.885-.24-3.885ZM9.52 15.112V8.367l6.483 3.384-6.483 3.361Z" fill="#00171F"/></svg></svg>