<svg width="30" height="30" viewBox="0 0 30 30" fill="none" xmlns="http://www.w3.org/2000/svg">
<g clip-path="url(#clip0_108_1551)">
<path d="M14.2387 9.23168L16.6665 8.87498C17.6106 8.73629 18.3322 7.96141 18.4034 7.00988L18.6653 3.51121C18.6934 3.13585 18.2945 2.87856 17.9641 3.05891L15.746 4.26985C14.9879 4.68371 14.4553 5.41556 14.2947 6.26416L13.8163 8.79135C13.7684 9.04437 13.984 9.26912 14.2387 9.23168V9.23168Z" fill="#FFE07D"/>
<path d="M17.9642 3.05891L16.9089 3.63498L16.6597 6.96532C16.5884 7.91686 15.8668 8.69168 14.9228 8.83043L13.8333 8.99053C13.8919 9.14878 14.0549 9.25868 14.2388 9.23163L16.6666 8.87488C17.6107 8.73619 18.3323 7.96131 18.4035 7.00977L18.6654 3.51111C18.6934 3.13585 18.2946 2.87856 17.9642 3.05891V3.05891Z" fill="#FFD064"/>
<path d="M9.86684 18.9549L11.4653 18.6186C11.8148 18.6588 12.043 19.0055 11.9416 19.3424L11.5128 20.7674L15.5037 26.3514H18.1574L28.1904 24.3855L22.5049 12.9789C21.6578 11.2794 20.6577 9.66062 19.5169 8.14261C17.778 5.53421 14.2567 4.82403 11.6427 6.55451L9.94921 7.67559C9.24636 8.14087 8.78673 8.89455 8.69476 9.73244L8.54252 11.1199C8.48815 11.6157 8.14801 12.0336 7.67356 12.1875L4.6117 13.1807L3.98511 15.6554L4.1672 16.0342C4.71991 17.1842 5.82406 17.9702 7.09169 18.1159L8.15371 18.238C8.1998 18.2433 8.24225 18.2675 8.26814 18.3059C8.61761 18.8257 9.24937 19.0848 9.86684 18.9549V18.9549Z" fill="#FFD064"/>
<path d="M22.5048 12.9789C21.6578 11.2794 20.6576 9.66062 19.5169 8.14261C18.0291 5.91094 15.2367 5.06904 12.824 5.95614C13.9206 6.35676 14.9042 7.09699 15.6013 8.14261C16.7421 9.66062 17.7422 11.2794 18.5893 12.9789L25.0087 25.8577L28.1904 24.3855L22.5048 12.9789Z" fill="#FFC250"/>
<path d="M22.6742 16.383L22.7186 15.7946C22.7858 14.9051 22.4194 14.0378 21.7347 13.466L19.716 11.7802C19.4747 11.5787 19.1131 11.7869 19.1661 12.0967L19.6361 14.8414C19.6756 15.0721 19.8116 15.2749 20.0099 15.3991L22.0691 16.6888C22.3215 16.847 22.6517 16.6802 22.6742 16.383V16.383Z" fill="#4A80AA"/>
<path d="M21.7347 13.4661L19.716 11.7803C19.4747 11.5788 19.1131 11.7869 19.1661 12.0968L19.312 12.9486L20.0991 13.6059C20.7838 14.1777 21.1503 15.0449 21.083 15.9345L21.0732 16.0652L22.069 16.6889C22.3215 16.847 22.6517 16.6802 22.6742 16.3831L22.7186 15.7946C22.7858 14.9051 22.4194 14.0379 21.7347 13.4661V13.4661Z" fill="#407093"/>
<path d="M16.3879 20.6197C16.6837 20.9167 17.0466 21.1382 17.4459 21.2656C17.5011 21.2832 17.5453 21.3249 17.566 21.3791L17.7367 21.8268C17.8549 22.1368 18.1721 22.3358 18.4995 22.2818C18.516 22.2791 18.5325 22.2758 18.549 22.2719L19.4505 22.0621C19.8143 21.9774 20.0852 22.3935 19.8606 22.6919L18.9297 23.9284C18.4013 24.6303 18.1335 25.4858 18.1572 26.3513H29.1626C29.346 26.3513 29.4772 26.1728 29.4208 25.9983C29.3059 25.6426 29.2195 25.278 29.1632 24.9077L28.671 21.67C28.4794 20.4099 27.9459 19.2265 27.1287 18.2484L24.9996 15.7002C24.2931 14.8547 23.3172 14.2779 22.2358 14.0667L22.1225 14.0446C20.7087 13.7685 19.2456 14.1419 18.1371 15.0618L17.6597 15.4579C16.9695 16.0307 16.6572 16.9411 16.8506 17.8169L17.0082 18.5308L16.0896 19.5422L16.125 20.3557L16.3879 20.6197Z" fill="#407093"/>
<path d="M10.712 13.1504C11.0976 13.1504 11.4103 12.8377 11.4103 12.4521C11.4103 12.0664 11.0976 11.7538 10.712 11.7538C10.3263 11.7538 10.0137 12.0664 10.0137 12.4521C10.0137 12.8377 10.3263 13.1504 10.712 13.1504Z" fill="#707DD3"/>
<path d="M3.69688 15.0555L3.98513 15.6553L4.13663 15.252C4.23451 14.9916 4.48768 14.8226 4.76575 14.8322L5.48141 14.8569C5.76797 14.8668 5.92027 14.5222 5.72003 14.317L4.61166 13.1806L4.48162 13.2228C3.71913 13.4701 3.34962 14.333 3.69688 15.0555V15.0555Z" fill="#407093"/>
<path d="M5.72002 14.317L4.61165 13.1806L4.4816 13.2228C4.22711 13.3054 4.0167 13.4568 3.86182 13.6483L4.78778 14.5977C4.85681 14.6684 4.89119 14.7525 4.89879 14.8368L5.48139 14.8569C5.76795 14.8668 5.92025 14.5222 5.72002 14.317Z" fill="#365E7D"/>
<path d="M7.7724 15.9745C8.02531 15.9745 8.23034 15.7694 8.23034 15.5165C8.23034 15.2636 8.02531 15.0586 7.7724 15.0586C7.51948 15.0586 7.31445 15.2636 7.31445 15.5165C7.31445 15.7694 7.51948 15.9745 7.7724 15.9745Z" fill="#FFC250"/>
<path d="M9.54242 15.9745C9.79533 15.9745 10.0004 15.7694 10.0004 15.5165C10.0004 15.2636 9.79533 15.0586 9.54242 15.0586C9.2895 15.0586 9.08447 15.2636 9.08447 15.5165C9.08447 15.7694 9.2895 15.9745 9.54242 15.9745Z" fill="#FFC250"/>
<path d="M8.79803 17.2459C9.05095 17.2459 9.25598 17.0408 9.25598 16.7879C9.25598 16.535 9.05095 16.33 8.79803 16.33C8.54512 16.33 8.34009 16.535 8.34009 16.7879C8.34009 17.0408 8.54512 17.2459 8.79803 17.2459Z" fill="#FFC250"/>
<path d="M19.0098 19.1798C19.3683 19.1798 19.6588 18.8892 19.6588 18.5308C19.6588 18.1724 19.3683 17.8818 19.0098 17.8818C18.6514 17.8818 18.3608 18.1724 18.3608 18.5308C18.3608 18.8892 18.6514 19.1798 19.0098 19.1798Z" fill="#95D6A4"/>
<path d="M16.6433 19.5013L16.0897 19.5423L16.033 19.6047C15.8762 19.7773 15.8607 20.0359 15.9958 20.226L16.1251 20.3558L16.7035 20.3129C16.9276 20.2963 17.0959 20.1011 17.0793 19.877C17.0627 19.6529 16.8678 19.4852 16.6433 19.5013Z" fill="#E28086"/>
<path d="M16.2494 9.65151L17.3001 9.70282L19.0543 9.47479C19.0543 9.47479 19.8545 9.56882 20.2516 9.16651C20.4899 8.92514 20.6701 8.62229 20.7653 8.27741L21.6991 4.89555C21.7993 4.53274 21.4578 4.20315 21.0988 4.31616L18.6882 5.07506C17.8644 5.33441 17.2002 5.94945 16.8784 6.7509L15.9201 9.13782C15.8242 9.37671 15.9923 9.63896 16.2494 9.65151V9.65151Z" fill="#FFE07D"/>
<path d="M21.0987 4.31614L19.6848 4.76127C19.6853 4.80499 19.6797 4.84997 19.6671 4.89554L18.7333 8.27739C18.5373 8.9872 17.9815 9.5185 17.3 9.7028L18.7004 9.7712C19.6534 9.81776 20.5113 9.19713 20.7652 8.27739L21.699 4.89554C21.7992 4.53272 21.4577 4.20308 21.0987 4.31614V4.31614Z" fill="#FFD064"/>
<path d="M19.7797 14.9067L19.893 14.9288C20.9744 15.14 21.9503 15.7168 22.6568 16.5623L24.786 19.1105C25.6033 20.0886 26.1367 21.2721 26.3283 22.5322L26.8206 25.7699C26.8503 25.9655 26.8892 26.1594 26.9354 26.3515H29.1628C29.3462 26.3515 29.4774 26.173 29.4211 25.9984C29.3062 25.6427 29.2197 25.2781 29.1634 24.9079L28.6711 21.6702C28.4795 20.4101 27.9461 19.2266 27.1289 18.2485L24.9997 15.7003C24.2932 14.8548 23.3173 14.278 22.2359 14.0668L22.1226 14.0447C20.8304 13.7924 19.4971 14.083 18.4309 14.8372C18.8768 14.7971 19.3307 14.819 19.7797 14.9067V14.9067Z" fill="#365E7D"/>
<path d="M24.0773 16.2973C24.0773 16.2973 24.6635 15.7126 24.6922 15.3657C24.7351 14.8473 24.6314 14.32 24.3817 13.8474L23.1533 11.5219C23.0065 11.244 22.5929 11.2995 22.5245 11.6063L21.9184 14.3241C21.8674 14.5525 21.9163 14.7917 22.0527 14.9819L23.0496 16.3718L24.0773 16.2973Z" fill="#4A80AA"/>
<path d="M24.3816 13.8475L23.1532 11.522C23.0064 11.244 22.5928 11.2995 22.5244 11.6063L22.3025 12.6013L22.9927 13.9078C23.3984 14.6758 23.4176 15.5882 23.0495 16.3719L23.4687 16.9563C23.6423 17.1984 24.0111 17.1693 24.1446 16.9028L24.4089 16.3753C24.8085 15.5776 24.7983 14.6362 24.3816 13.8475V13.8475Z" fill="#407093"/>
<path d="M24.8908 30C26.65 30 28.0761 28.5739 28.0761 26.8147C28.0761 25.0556 26.65 23.6295 24.8908 23.6295C23.1317 23.6295 21.7056 25.0556 21.7056 26.8147C21.7056 28.5739 23.1317 30 24.8908 30Z" fill="#B3E59F"/>
<path d="M26.7585 24.2352C27.1392 24.76 27.3643 25.405 27.3643 26.1029C27.3643 27.8621 25.9382 29.2882 24.179 29.2882C23.4811 29.2882 22.8361 29.0631 22.3113 28.6824C22.8901 29.4805 23.8296 30 24.8908 30C26.6499 30 28.076 28.5739 28.076 26.8148C28.0761 25.7535 27.5566 24.8141 26.7585 24.2352V24.2352Z" fill="#95D6A4"/>
<path d="M24.5329 28.0129C24.425 28.0129 24.3215 27.97 24.2451 27.8937L23.4341 27.0827C23.2752 26.9237 23.2752 26.6661 23.4341 26.5071C23.593 26.3483 23.8508 26.3483 24.0096 26.5071L24.5329 27.0304L25.8689 25.6943C26.0278 25.5355 26.2855 25.5355 26.4444 25.6943C26.6034 25.8532 26.6034 26.1109 26.4444 26.2698L24.8206 27.8937C24.7443 27.97 24.6408 28.0129 24.5329 28.0129V28.0129Z" fill="#F2FBFF"/>
<path d="M15.781 25.4157C15.911 24.9771 15.5823 24.5369 15.1248 24.5369C14.6751 24.5369 14.3476 24.1105 14.4637 23.6759L14.5074 23.5121C14.6235 23.0776 14.296 22.6512 13.8462 22.6512H13.7546C13.3173 22.6512 12.9922 22.2466 13.0862 21.8195L13.1348 21.599C13.2289 21.172 12.9038 20.7674 12.4665 20.7674H11.5128L10.7588 23.2733C10.5387 24.0044 10.427 24.7637 10.427 25.5272V26.0801C10.427 26.23 10.5484 26.3515 10.6983 26.3515H15.5037L15.781 25.4157Z" fill="#F9F6F6"/>
<path d="M22.7033 19.9414L24.0874 20.132C24.31 20.1626 24.5154 20.0071 24.5461 19.7844C24.5768 19.5618 24.4211 19.3564 24.1984 19.3257L22.8143 19.1351C22.045 19.0291 21.2725 19.1587 20.5784 19.5102L19.7242 19.9472C19.555 20.0339 19.451 20.2127 19.4595 20.4028C19.4679 20.5928 19.5873 20.7617 19.7638 20.8331L20.7131 21.2166C21.1247 21.3788 21.4905 21.6453 21.771 21.9872L22.244 22.5637C22.3245 22.6618 22.4412 22.7125 22.5589 22.7125C22.6497 22.7125 22.7411 22.6823 22.8168 22.6202C22.9906 22.4777 23.0159 22.2213 22.8733 22.0474L22.4003 21.471C22.2133 21.2431 21.9974 21.0409 21.7599 20.8692C22.083 20.9409 22.3938 21.0648 22.6792 21.2382L23.8929 21.9757C23.959 22.0159 24.0319 22.0349 24.1039 22.0349C24.2414 22.0349 24.3755 21.9653 24.4521 21.8392C24.5688 21.6471 24.5077 21.3968 24.3156 21.2801L23.1019 20.5427C22.6265 20.2538 22.096 20.0729 21.5471 20.0091C21.9218 19.9116 22.313 19.8878 22.7033 19.9414V19.9414Z" fill="#4A80AA"/>
</g>
<defs>
<clipPath id="clip0_108_1551">
<rect width="27" height="27" fill="white" transform="translate(3 3)"/>
</clipPath>
</defs>
</svg>
